<?xml version="1.0" encoding="UTF-8"?>
<svg version="1.1" xmlns="http://www.w3.org/2000/svg" width="512" height="512">
<path d="M0 0 C168.96 0 337.92 0 512 0 C512 168.96 512 337.92 512 512 C343.04 512 174.08 512 0 512 C0 343.04 0 174.08 0 0 Z " fill="#0088FF" transform="translate(0,0)"/>
<path d="M0 0 C1.63412842 0.01135986 1.63412842 0.01135986 3.30126953 0.02294922 C19.46003297 0.3516427 33.75095597 4.9955442 45.6875 16.25 C49.09337823 19.97517932 51.48969317 23.90828106 53.6875 28.4375 C54.10128906 29.24960938 54.51507813 30.06171875 54.94140625 30.8984375 C57.92856307 37.99683803 58.0709169 45.0338047 58.125 52.625 C58.13515137 53.64674316 58.14530273 54.66848633 58.15576172 55.72119141 C58.00911727 68.45034276 53.05530285 79.33476978 44.5 88.78125 C37.56718609 95.11640754 29.48556614 98.54592375 20.6875 101.4375 C19.016244 102.0925768 17.34814809 102.75597955 15.6875 103.4375 C16.66589844 104.283125 17.64429688 105.12875 18.65234375 106 C21.37073404 108.34994214 24.08298125 110.70678233 26.79296875 113.06640625 C28.94272732 114.9358285 31.10143818 116.77842667 33.30078125 118.58984375 C48.95922487 131.67194381 60.81796419 151.39699552 63.41015625 171.71484375 C65.10539252 194.46921231 62.45368906 216.40456067 47.14453125 234.5390625 C44.43407578 237.61828742 41.5860653 240.53490331 38.6875 243.4375 C37.89472656 244.241875 37.10195312 245.04625 36.28515625 245.875 C25.85938693 255.86708507 13.06165935 262.30207485 -0.3125 267.4375 C-1.27285156 267.81648438 -2.23320312 268.19546875 -3.22265625 268.5859375 C-27.08787012 277.31791396 -56.69552096 278.11580431 -80.25 268.125 C-97.44107274 259.48985286 -108.71588195 247.76967451 -115.3125 229.4375 C-120.21275115 213.28427053 -119.54717735 192.67445971 -112.3125 177.4375 C-111.87808594 176.41398438 -111.44367188 175.39046875 -110.99609375 174.3359375 C-104.75247168 160.56795038 -94.56486495 147.31541548 -80.3125 141.4375 C-77.18405331 140.39468444 -74.78640071 140.20354291 -71.5 140.125 C-70.48292969 140.08761719 -69.46585938 140.05023438 -68.41796875 140.01171875 C-64.39091366 140.56385586 -62.33498055 141.73060198 -59.3125 144.4375 C-56.44169185 155.36129306 -61.03065219 168.47546894 -63.73999023 179.08837891 C-66.77415743 191.53816858 -67.1041544 207.04863138 -60.25 218.375 C-55.83204796 223.67654245 -50.34925423 226.10535501 -43.5625 226.84765625 C-30.82164927 227.3530733 -17.09282969 225.50630849 -7.34765625 216.65234375 C1.12410659 207.6432598 3.03537048 197.81967615 2.8984375 185.7421875 C1.70973457 167.11917497 -13.07521838 151.36115825 -26.3125 139.4375 C-28.07440115 137.98906592 -29.84592168 136.55228318 -31.625 135.125 C-49.20034901 120.92859084 -65.24912722 101.34476407 -69.3125 78.4375 C-71.25035096 59.6559177 -67.74996727 40.99659106 -56.28125 25.734375 C-41.88631085 8.73165702 -22.13256984 -0.21756154 0 0 Z " fill="#FDFEFF" transform="translate(144.3125,117.5625)"/>
<path d="M0 0 C1.54040299 1.47989616 3.06285525 2.97881637 4.5625 4.5 C5.20832031 5.13550781 5.85414063 5.77101562 6.51953125 6.42578125 C17.95430893 18.45845581 21.15049957 34.02998919 21.0625 50.125 C21.05677979 51.34904541 21.05105957 52.57309082 21.04516602 53.83422852 C20.64001399 74.55700456 13.43378782 91.03201718 -0.4375 106.5 C-0.98921875 107.13421875 -1.5409375 107.7684375 -2.109375 108.421875 C-11.28428123 118.32350647 -23.23556113 124.25130984 -35.4375 129.5 C-35.08558594 130.33015625 -34.73367188 131.1603125 -34.37109375 132.015625 C-30.7758395 140.86291561 -28.276923 149.77608763 -26.0625 159.0625 C-23.83986559 168.31578953 -21.36720745 177.38035994 -18.25 186.375 C-17.92918457 187.31287354 -17.60836914 188.25074707 -17.27783203 189.21704102 C-15.50445896 194.18605616 -13.47665361 198.20070953 -10.4375 202.5 C-10.4375 203.16 -10.4375 203.82 -10.4375 204.5 C-5.27915126 206.21944958 -0.52319945 206.27619955 4.4375 204.0625 C9.82946174 201.08106233 14.10202957 196.68883922 18.5625 192.5 C19.89053511 191.34803015 21.22351166 190.20171992 22.5625 189.0625 C28.89746632 183.53380212 34.84948164 177.57911088 40.3125 171.1875 C47.43447668 162.94540023 47.43447668 162.94540023 52.25 161.9375 C54.5625 162.5 54.5625 162.5 56.3125 164.25 C60.00872626 170.90320728 59.53122827 179.56838088 57.76171875 186.75 C49.22781064 210.68013407 29.76462373 229.03220143 7.5625 240.5 C3.29978034 242.43410079 -0.99190566 244.04102116 -5.4375 245.5 C-6.32566406 245.81839844 -7.21382812 246.13679688 -8.12890625 246.46484375 C-18.46604219 249.80785195 -30.79964621 250.27582903 -40.90625 245.953125 C-52.35415889 239.38117731 -57.60029008 230.41369505 -61 218.125 C-64.86426648 203.11886471 -66.55079794 187.6495659 -68.46875 172.30078125 C-68.55531357 171.61295563 -68.64187714 170.92513 -68.73106384 170.21646118 C-69.15046947 166.88079186 -69.56111801 163.54484847 -69.95532227 160.20605469 C-70.80675387 153.2757762 -71.99445325 146.64130067 -73.84936523 139.90600586 C-74.4375 137.5 -74.4375 137.5 -74.4375 134.5 C-75.38625 134.45875 -76.335 134.4175 -77.3125 134.375 C-83.91926585 133.4215846 -90.18210646 129.31875338 -94.5 124.3125 C-97.94939332 119.30531615 -98.20351402 114.4158432 -97.4375 108.5 C-94.4482087 102.93373343 -90.46203915 101.09790021 -84.53515625 99.19140625 C-76.23181705 97.33807581 -68.48381245 97.93436711 -60.55859375 100.94140625 C-58.07208127 101.59623366 -56.82053526 101.42037896 -54.4375 100.5 C-51.93708655 98.33459483 -51.93708655 98.33459483 -49.4375 95.5 C-48.95023438 94.99339844 -48.46296875 94.48679687 -47.9609375 93.96484375 C-37.04076662 82.12065841 -33.86955491 66.3942045 -34.19140625 50.69921875 C-35.09667593 38.93071297 -39.13684295 30.4314351 -47.5625 22.25 C-62.83575535 9.42863848 -84.64592724 10.39726775 -103.4375 11.5 C-123.25168184 13.45202225 -140.97874132 20.73911877 -158.265625 30.265625 C-164.07065336 33.41571726 -168.95727992 35.92470503 -175.75 35.8125 C-176.77738281 35.80863281 -177.80476562 35.80476563 -178.86328125 35.80078125 C-181.4375 35.5 -181.4375 35.5 -183.4375 33.5 C-182.59191195 21.80811912 -172.51372486 12.49484729 -164.24072266 5.03710938 C-122.20393709 -30.79603467 -43.13349544 -37.63672316 0 0 Z " fill="#FDFEFF" transform="translate(427.4375,142.5)"/>
<path d="M0 0 C3.76280381 4.42107209 3.42662926 8.93502365 3.3125 14.4375 C3.30049561 15.33782959 3.28849121 16.23815918 3.27612305 17.16577148 C3.13716311 23.78440388 2.61356148 30.21628853 1.41552734 36.73535156 C0.89008249 39.59905689 0.39457397 42.46768913 -0.10546875 45.3359375 C-2.36067089 58.0666024 -4.90877817 70.50059785 -8.56152344 82.90722656 C-10.12418972 88.25045319 -11.58566444 93.61566748 -13 99 C-13.37780609 100.42771729 -13.37780609 100.42771729 -13.76324463 101.88427734 C-18.64749084 120.85054968 -19.83413804 138.54256708 -19.70068359 158.00769043 C-19.66541136 163.6724767 -19.6723484 169.33704964 -19.6968174 175.00185776 C-19.69914206 176.94374707 -19.68069731 178.88562684 -19.6615448 180.8274231 C-19.6649749 190.36576524 -20.47484048 199.73344315 -27.30859375 206.98046875 C-37.68488422 214.76645158 -52.88971017 221.81707445 -66 220 C-71.46419289 217.01953115 -73.08903844 213.31990188 -75.23828125 207.59765625 C-82.80880184 181.78023987 -75.24548316 150.00338663 -68.69482422 124.71044922 C-68.10433872 122.40701632 -67.54231475 120.10116741 -67.00390625 117.78515625 C-60.38191337 89.73733752 -50.64733268 62.315129 -38.25 36.3125 C-37.73155518 35.22074463 -37.21311035 34.12898926 -36.67895508 33.00415039 C-33.34674912 26.20065417 -29.51023759 20.08041954 -25 14 C-24.360625 13.0925 -23.72125 12.185 -23.0625 11.25 C-17.40493512 5.07811104 -8.83240644 -1.60589208 0 0 Z " fill="#FDFEFF" transform="translate(325,175)"/>
<path d="M0 0 C3.23382411 2.22510834 6.22335706 4.44671411 8 8 C9.24537717 23.96532695 5.07060051 36.27570377 -5.23046875 48.6875 C-7.11960306 50.82740436 -9.03345347 52.93129521 -11 55 C-24.01165912 49.60122302 -34.63818317 32.18266345 -39.828125 19.98046875 C-40.21484375 18.99691406 -40.6015625 18.01335937 -41 17 C-41.32484375 16.21238281 -41.6496875 15.42476562 -41.984375 14.61328125 C-42.6875 12.5625 -42.6875 12.5625 -43 9 C-35.37693882 -4.88486143 -12.99063145 -6.36611415 0 0 Z " fill="#0288FF" transform="translate(160,156)"/>
<path d="M0 0 C0.33 0 0.66 0 1 0 C1 13.53 1 27.06 1 41 C-12.53 41 -26.06 41 -40 41 C-36.76284016 39.38142008 -33.61375469 38.05715856 -30.25 36.75 C-17.68117409 31.49394553 -8.15454317 22.24628755 -2.9296875 9.5625 C-1.78124284 6.39703909 -0.79959012 3.27105048 0 0 Z " fill="#000000" transform="translate(511,471)"/>
<path d="M0 0 C1.61102614 3.22205228 2.90350921 6.33510084 4.1875 9.6875 C9.4388475 22.28767199 18.80051593 31.77110159 31.40234375 37.03515625 C34.57753084 38.21451146 37.71018197 39.19582226 41 40 C41 40.33 41 40.66 41 41 C27.47 41 13.94 41 0 41 C0 27.47 0 13.94 0 0 Z " fill="#000000" transform="translate(0,471)"/>
<path d="M0 0 C13.53 0 27.06 0 41 0 C41 13.53 41 27.06 41 41 C39.38897386 37.77794772 38.09649079 34.66489916 36.8125 31.3125 C31.5611525 18.71232801 22.19948407 9.22889841 9.59765625 3.96484375 C6.42246916 2.78548854 3.28981803 1.80417774 0 1 C0 0.67 0 0.34 0 0 Z " fill="#000000" transform="translate(471,0)"/>
<path d="M0 0 C13.53 0 27.06 0 41 0 C37.76284016 1.61857992 34.61375469 2.94284144 31.25 4.25 C18.68117409 9.50605447 9.15454317 18.75371245 3.9296875 31.4375 C2.78124284 34.60296091 1.79959012 37.72894952 1 41 C0.67 41 0.34 41 0 41 C0 27.47 0 13.94 0 0 Z " fill="#000000" transform="translate(0,0)"/>
</svg>
